<svg width="66" height="66" viewBox="0 0 66 66" fill="none" xmlns="http://www.w3.org/2000/svg">
<circle cx="33" cy="33" r="33" fill="#E9E9E9"/>
<path d="M52.9194 32.9336C52.9194 55.9046 55.3906 52.8671 32.9597 52.8671C21.9363 52.8671 13 43.9426 13 32.9336C13 21.9246 21.9363 13 32.9597 13C43.9832 13 52.9194 21.9246 52.9194 32.9336Z" fill="white"/>
<path d="M23.0957 28.8366H44.5752V31.8292H23.0957V28.8366ZM35.4765 30.0433C36.9246 35.5701 39.9897 40.1556 45.1061 42.1828C44.3821 42.8345 43.4167 44.0895 42.934 44.9342C37.4073 42.3518 34.3905 37.356 32.5563 30.7191L35.4765 30.0433ZM32.146 22.3445H35.3317C35.2111 29.7054 35.1628 39.9384 24.8092 44.9342C24.3506 44.1377 23.4577 43.0999 22.613 42.4725C32.508 38.0559 32.0736 28.8849 32.146 22.3445Z" fill="#E9E9E9"/>
</svg>
