<svg width="100" height="100" viewBox="0 0 100 100" fill="none" xmlns="http://www.w3.org/2000/svg">
<path d="M99.7986 49.8339C99.7986 107.262 105.977 99.6678 49.8993 99.6678C22.3407 99.6678 0 77.3564 0 49.8339C0 22.3114 22.3407 0 49.8993 0C77.4579 0 99.7986 22.3114 99.7986 49.8339Z" fill="white"/>
<path d="M25.2062 40.4368H78.375V47.8446H25.2062V40.4368ZM55.8529 43.4238C59.4374 57.1044 67.0244 68.455 79.6893 73.4732C77.8971 75.0862 75.5075 78.1927 74.3127 80.2836C60.6322 73.8914 53.1646 61.5251 48.6244 45.0966L55.8529 43.4238ZM47.6088 24.3667H55.4945C55.1958 42.5875 55.0763 67.9173 29.4477 80.2836C28.3127 78.3122 26.1023 75.7433 24.0114 74.1901C48.5049 63.2576 47.4296 40.5563 47.6088 24.3667Z" fill="#1B69FF"/>
</svg>
