<svg width="23" height="26" viewBox="0 0 23 26" fill="none" xmlns="http://www.w3.org/2000/svg">
<path d="M21.0752 2.05286C21.3684 2.38754 21.601 2.78499 21.7597 3.22249C21.9183 3.65998 22 4.12894 22 4.60254C22 5.07615 21.9183 5.5451 21.7597 5.9826C21.601 6.4201 21.3684 6.81755 21.0752 7.15223L6.94822 23.3002L1 25L2.48706 18.296L16.62 2.05966C17.1771 1.41981 17.9243 1.04278 18.7132 1.00342C19.5022 0.964063 20.2753 1.26525 20.879 1.84719L21.0752 2.05286ZM9.92233 25H21.8188Z" fill="#98A4AF"/>
<path d="M9.92233 25H21.8188M21.0752 2.05286C21.3684 2.38754 21.601 2.78499 21.7597 3.22249C21.9183 3.65998 22 4.12894 22 4.60254C22 5.07615 21.9183 5.5451 21.7597 5.9826C21.601 6.4201 21.3684 6.81755 21.0752 7.15223L6.94822 23.3002L1 25L2.48706 18.296L16.62 2.05966C17.1771 1.41981 17.9243 1.04278 18.7132 1.00342C19.5022 0.964063 20.2753 1.26525 20.879 1.84719L21.0752 2.05286Z" stroke="#98A4AF" stroke-width="1.35" stroke-linecap="round" stroke-linejoin="round"/>
</svg>
