<svg width="302" height="105" viewBox="0 0 302 105" fill="none" xmlns="http://www.w3.org/2000/svg">
<path d="M105.022 52.3256C105.022 112.625 111.523 104.651 52.5109 104.651C23.5099 104.651 0 81.2242 0 52.3256C0 23.427 23.5099 0 52.5109 0C81.5118 0 105.022 23.427 105.022 52.3256Z" fill="#1B69FF"/>
<path d="M26.5175 42.5584H82.3448V50.3366H26.5175V42.5584ZM58.6966 45.6948C62.4602 60.0593 70.4266 71.9775 83.7248 77.2466C81.8429 78.9402 79.3339 82.202 78.0793 84.3975C63.7148 77.6857 55.8739 64.7011 51.1066 47.4511L58.6966 45.6948ZM50.0402 25.6848H58.3202C58.0066 44.8166 57.8811 71.4129 30.9711 84.3975C29.7793 82.3275 27.4584 79.6302 25.2629 77.9993C50.9811 66.5202 49.852 42.6839 50.0402 25.6848Z" fill="white"/>
<path d="M124.248 57.6597H132.976V82.991H124.248V57.6597ZM145.641 57.6597H154.369V82.991H145.641V57.6597ZM111.648 55.8879H166.707V62.8441H111.648V55.8879ZM118.013 24.9129H160.144V49.391H118.013V24.9129ZM151.548 31.7379H126.61V42.5004H151.548V31.7379ZM214.083 22.0254H222.811V82.7941H214.083V22.0254ZM175.233 27.8004H183.896V65.5347H175.233V27.8004ZM175.233 60.416H180.614C189.474 60.416 199.317 59.7597 209.358 57.791L210.342 65.0097C199.908 67.1754 189.867 67.8316 180.614 67.8316H175.233V60.416ZM235.669 61.991H240.919C251.55 61.991 259.687 61.7941 269.072 60.416L269.859 67.3066C260.344 68.816 251.747 69.0785 240.919 69.0785H235.669V61.991ZM235.669 27.0785H266.447V34.166H244.331V64.2879H235.669V27.0785ZM242.362 43.9441H263.887V50.7691H242.362V43.9441ZM274.256 22.0254H283.05V82.7941H274.256V22.0254Z" fill="black"/>
</svg>
