<svg width="16" height="26" viewBox="0 0 16 26" fill="none" xmlns="http://www.w3.org/2000/svg">
<path d="M16 1.30078L16 24.7014C15.9994 24.9384 15.9457 25.1706 15.8447 25.3731C15.7436 25.5757 15.5991 25.7409 15.4267 25.8509C15.2542 25.961 15.0603 26.0117 14.8659 25.9977C14.6715 25.9837 14.484 25.9054 14.3234 25.7714L0.43197 14.071C-0.14399 13.5861 -0.14399 12.4187 0.43197 11.9325L14.3234 0.232152C14.4836 0.0967209 14.6713 0.0173007 14.866 0.00252067C15.0607 -0.0122594 15.2551 0.038166 15.4279 0.148318C15.6007 0.25847 15.7454 0.424136 15.8463 0.627317C15.9471 0.830498 16.0003 1.06342 16 1.30078Z" fill="#707583"/>
</svg>
