<svg width="16" height="26" viewBox="0 0 16 26" fill="none" xmlns="http://www.w3.org/2000/svg">
<path d="M0 1.30078L0 24.7014C0.000610352 24.9384 0.0543213 25.1706 0.155348 25.3731C0.256374 25.5757 0.400891 25.7409 0.573345 25.8509C0.745799 25.961 0.93966 26.0117 1.13406 25.9977C1.32846 25.9837 1.51603 25.9054 1.67659 25.7714L15.568 14.071C16.144 13.5861 16.144 12.4187 15.568 11.9325L1.67659 0.232152C1.51637 0.0967209 1.3287 0.0173007 1.13397 0.00252067C0.939253 -0.0122594 0.744925 0.038166 0.572106 0.148318C0.399286 0.25847 0.254584 0.424136 0.153721 0.627317C0.0528584 0.830498 -0.000307083 1.06342 0 1.30078Z" fill="#707583"/>
</svg>
