<svg width="40" height="40" viewBox="0 0 40 40" fill="none" xmlns="http://www.w3.org/2000/svg">
<path fill-rule="evenodd" clip-rule="evenodd" d="M23.968 1.084C24.142 1.422 24.186 1.856 24.272 2.724C24.436 4.364 24.518 5.184 24.862 5.636C25.0763 5.91664 25.3611 6.13554 25.6875 6.27043C26.0138 6.40533 26.3701 6.45141 26.72 6.404C27.28 6.33 27.92 5.808 29.196 4.764C29.87 4.21 30.208 3.934 30.57 3.818C31.0311 3.67067 31.5299 3.69554 31.974 3.888C32.324 4.04 32.634 4.348 33.248 4.964L35.036 6.752C35.652 7.368 35.96 7.676 36.112 8.026C36.3045 8.47011 36.3293 8.96895 36.182 9.43C36.066 9.792 35.79 10.13 35.238 10.804C34.192 12.082 33.67 12.72 33.594 13.282C33.5472 13.6318 33.5938 13.9877 33.729 14.3137C33.8642 14.6397 34.0833 14.9241 34.364 15.138C34.814 15.482 35.636 15.564 37.278 15.728C38.144 15.814 38.578 15.858 38.918 16.032C39.3469 16.2544 39.6808 16.6245 39.858 17.074C40 17.428 40 17.864 40 18.736V21.264C40 22.136 40 22.572 39.86 22.924C39.6822 23.3749 39.3468 23.7459 38.916 23.968C38.578 24.142 38.144 24.186 37.276 24.272C35.636 24.436 34.816 24.518 34.364 24.862C34.0834 25.0763 33.8645 25.3611 33.7296 25.6875C33.5947 26.0138 33.5486 26.3701 33.596 26.72C33.672 27.28 34.194 27.92 35.238 29.196C35.79 29.87 36.066 30.206 36.182 30.57C36.3293 31.0311 36.3045 31.5299 36.112 31.974C35.96 32.324 35.652 32.632 35.036 33.248L33.248 35.034C32.632 35.652 32.324 35.96 31.974 36.11C31.5299 36.3025 31.0311 36.3273 30.57 36.18C30.208 36.064 29.87 35.788 29.196 35.236C27.918 34.192 27.28 33.67 26.72 33.596C26.3701 33.5486 26.0138 33.5947 25.6875 33.7296C25.3611 33.8645 25.0763 34.0834 24.862 34.364C24.518 34.814 24.436 35.634 24.272 37.276C24.186 38.144 24.142 38.578 23.968 38.916C23.7464 39.3464 23.3761 39.6818 22.926 39.86C22.572 40 22.136 40 21.264 40H18.736C17.864 40 17.428 40 17.076 39.86C16.6251 39.6822 16.2541 39.3468 16.032 38.916C15.858 38.578 15.814 38.144 15.728 37.276C15.564 35.636 15.482 34.816 15.138 34.364C14.9238 34.0837 14.6394 33.865 14.3134 33.7301C13.9874 33.5952 13.6316 33.549 13.282 33.596C12.72 33.67 12.082 34.192 10.804 35.236C10.13 35.79 9.792 36.066 9.43 36.182C8.96895 36.3293 8.47011 36.3045 8.026 36.112C7.676 35.96 7.366 35.652 6.752 35.036L4.964 33.248C4.348 32.632 4.04 32.324 3.888 31.974C3.69554 31.5299 3.67067 31.0311 3.818 30.57C3.934 30.208 4.21 29.87 4.762 29.196C5.808 27.918 6.33 27.28 6.404 26.718C6.45104 26.3684 6.40478 26.0126 6.2699 25.6866C6.13502 25.3606 5.91632 25.0762 5.636 24.862C5.186 24.518 4.364 24.436 2.722 24.272C1.856 24.186 1.422 24.142 1.082 23.968C0.653095 23.7456 0.319192 23.3755 0.142 22.926C1.93715e-07 22.572 0 22.136 0 21.264V18.736C0 17.864 -1.3411e-07 17.428 0.14 17.076C0.317774 16.6251 0.65323 16.2541 1.084 16.032C1.422 15.858 1.856 15.814 2.724 15.728C4.364 15.564 5.186 15.482 5.636 15.138C5.91669 14.9241 6.13577 14.6397 6.27101 14.3137C6.40624 13.9877 6.45282 13.6318 6.406 13.282C6.33 12.72 5.806 12.082 4.762 10.802C4.21 10.128 3.934 9.792 3.818 9.428C3.67067 8.96695 3.69554 8.46811 3.888 8.024C4.04 7.676 4.348 7.366 4.964 6.75L6.752 4.964C7.368 4.348 7.676 4.038 8.026 3.888C8.47011 3.69554 8.96895 3.67067 9.43 3.818C9.792 3.934 10.13 4.21 10.804 4.762C12.082 5.806 12.72 6.328 13.28 6.404C13.6304 6.45155 13.9872 6.40534 14.3139 6.27008C14.6407 6.13481 14.9257 5.91533 15.14 5.634C15.48 5.184 15.564 4.364 15.728 2.722C15.814 1.856 15.858 1.422 16.032 1.082C16.254 0.652343 16.6242 0.317687 17.074 0.14C17.428 -1.3411e-07 17.864 0 18.736 0H21.264C22.136 0 22.572 -1.3411e-07 22.924 0.14C23.3749 0.317774 23.7459 0.65323 23.968 1.084ZM20 28C22.1217 28 24.1566 27.1571 25.6569 25.6569C27.1571 24.1566 28 22.1217 28 20C28 17.8783 27.1571 15.8434 25.6569 14.3431C24.1566 12.8429 22.1217 12 20 12C17.8783 12 15.8434 12.8429 14.3431 14.3431C12.8429 15.8434 12 17.8783 12 20C12 22.1217 12.8429 24.1566 14.3431 25.6569C15.8434 27.1571 17.8783 28 20 28Z" fill="white"/>
</svg>
