<svg width="36" height="40" viewBox="0 0 36 40" fill="none" xmlns="http://www.w3.org/2000/svg">
<path d="M0 33V6C0 4.4087 0.632141 2.88258 1.75736 1.75736C2.88258 0.632141 4.4087 0 6 0H34C34.5304 0 35.0391 0.210714 35.4142 0.585786C35.7893 0.960859 36 1.46957 36 2V38C36 38.5304 35.7893 39.0391 35.4142 39.4142C35.0391 39.7893 34.5304 40 34 40H7C5.14348 40 3.36301 39.2625 2.05025 37.9497C0.737498 36.637 0 34.8565 0 33ZM32 36V30H7C6.20435 30 5.44129 30.3161 4.87868 30.8787C4.31607 31.4413 4 32.2043 4 33C4 33.7957 4.31607 34.5587 4.87868 35.1213C5.44129 35.6839 6.20435 36 7 36H32ZM4 26.674C4.93769 26.2298 5.96241 25.9995 7 26H32V4H6C5.46957 4 4.96086 4.21071 4.58579 4.58579C4.21071 4.96086 4 5.46957 4 6V26.674Z" fill="#1F262C"/>
</svg>
