<svg width="32" height="40" viewBox="0 0 32 40" fill="none" xmlns="http://www.w3.org/2000/svg">
<path d="M4 40C2.9 40 1.95867 39.6273 1.176 38.8819C0.393333 38.1365 0.00133333 37.2394 0 36.1905V17.1429C0 16.0952 0.392 15.1987 1.176 14.4533C1.96 13.7079 2.90133 13.3346 4 13.3333H6V9.52381C6 6.88889 6.97533 4.64318 8.926 2.78667C10.8767 0.93016 13.2347 0.00127114 16 1.30018e-06C18.7653 -0.00126854 21.124 0.92762 23.076 2.78667C25.028 4.64572 26.0027 6.89143 26 9.52381V13.3333H28C29.1 13.3333 30.042 13.7067 30.826 14.4533C31.61 15.2 32.0013 16.0965 32 17.1429V36.1905C32 37.2381 31.6087 38.1352 30.826 38.8819C30.0433 39.6286 29.1013 40.0013 28 40H4ZM4 36.1905H28V17.1429H4V36.1905ZM16 30.4762C17.1 30.4762 18.042 30.1035 18.826 29.3581C19.61 28.6127 20.0013 27.7156 20 26.6667C19.9987 25.6178 19.6073 24.7213 18.826 23.9771C18.0447 23.233 17.1027 22.8597 16 22.8571C14.8973 22.8546 13.956 23.2279 13.176 23.9771C12.396 24.7264 12.004 25.6229 12 26.6667C11.996 27.7105 12.388 28.6076 13.176 29.3581C13.964 30.1086 14.9053 30.4813 16 30.4762ZM10 13.3333H22V9.52381C22 7.93651 21.4167 6.5873 20.25 5.47619C19.0833 4.36508 17.6667 3.80953 16 3.80953C14.3333 3.80953 12.9167 4.36508 11.75 5.47619C10.5833 6.5873 10 7.93651 10 9.52381V13.3333Z" fill="#1F262C"/>
</svg>
