<svg width="106" height="105" viewBox="0 0 106 105" fill="none" xmlns="http://www.w3.org/2000/svg">
<path d="M105.022 52.3256C105.022 112.625 111.523 104.651 52.5109 104.651C23.5099 104.651 0 81.2242 0 52.3256C0 23.427 23.5099 0 52.5109 0C81.5118 0 105.022 23.427 105.022 52.3256Z" fill="#1B69FF"/>
<path d="M26.5175 42.5584H82.3448V50.3366H26.5175V42.5584ZM58.6966 45.6948C62.4602 60.0593 70.4266 71.9775 83.7248 77.2466C81.8429 78.9402 79.3339 82.202 78.0793 84.3975C63.7148 77.6857 55.8739 64.7011 51.1066 47.4511L58.6966 45.6948ZM50.0402 25.6848H58.3202C58.0066 44.8166 57.8811 71.4129 30.9711 84.3975C29.7793 82.3275 27.4584 79.6302 25.2629 77.9993C50.9811 66.5202 49.852 42.6839 50.0402 25.6848Z" fill="white"/>
</svg>
