<svg width="21" height="15" viewBox="0 0 21 15" fill="none" xmlns="http://www.w3.org/2000/svg">
<path d="M10.5 4.5C9.74052 4.5 9.01214 4.81607 8.4751 5.37868C7.93807 5.94129 7.63636 6.70435 7.63636 7.5C7.63636 8.29565 7.93807 9.05871 8.4751 9.62132C9.01214 10.1839 9.74052 10.5 10.5 10.5C11.2595 10.5 11.9879 10.1839 12.5249 9.62132C13.0619 9.05871 13.3636 8.29565 13.3636 7.5C13.3636 6.70435 13.0619 5.94129 12.5249 5.37868C11.9879 4.81607 11.2595 4.5 10.5 4.5ZM10.5 12.5C9.23419 12.5 8.02023 11.9732 7.12517 11.0355C6.23011 10.0979 5.72727 8.82608 5.72727 7.5C5.72727 6.17392 6.23011 4.90215 7.12517 3.96447C8.02023 3.02678 9.23419 2.5 10.5 2.5C11.7658 2.5 12.9798 3.02678 13.8748 3.96447C14.7699 4.90215 15.2727 6.17392 15.2727 7.5C15.2727 8.82608 14.7699 10.0979 13.8748 11.0355C12.9798 11.9732 11.7658 12.5 10.5 12.5ZM10.5 0C5.72727 0 1.65136 3.11 0 7.5C1.65136 11.89 5.72727 15 10.5 15C15.2727 15 19.3486 11.89 21 7.5C19.3486 3.11 15.2727 0 10.5 0Z" fill="#98A4AF"/>
</svg>
